<svg width="24" height="35" viewBox="0 0 24 35" fill="none" xmlns="http://www.w3.org/2000/svg">
<path d="M10.5 22.901C7.67391 22.5179 5.09874 21.0758 3.29528 18.8665C1.49183 16.6571 0.594654 13.8454 0.785198 10.9998C0.975742 8.15418 2.23978 5.48713 4.3217 3.53795C6.40362 1.58877 9.14805 0.502932 12 0.500005C14.8555 0.497253 17.6051 1.58042 19.6915 3.5299C21.7779 5.47938 23.0449 8.1493 23.2357 10.9984C23.4265 13.8474 22.5267 16.6624 20.7189 18.8727C18.911 21.0829 16.3303 22.523 13.5 22.901V26H21V29H13.5V35H10.5V29H3.00001V26H10.5V22.901ZM12 20C14.188 20 16.2865 19.1308 17.8336 17.5836C19.3808 16.0365 20.25 13.938 20.25 11.75C20.25 9.56197 19.3808 7.46355 17.8336 5.91638C16.2865 4.3692 14.188 3.50001 12 3.50001C9.81198 3.50001 7.71356 4.3692 6.16638 5.91638C4.61921 7.46355 3.75001 9.56197 3.75001 11.75C3.75001 13.938 4.61921 16.0365 6.16638 17.5836C7.71356 19.1308 9.81198 20 12 20Z" fill="#C300C7"/>
</svg>
